<svg width="556" height="420" viewBox="0 0 556 420" fill="none" xmlns="http://www.w3.org/2000/svg">
<g opacity="0.3">
<path opacity="0.0526316" d="M512.489 339.409C500.764 351.513 463.292 371.768 407.197 355.954C337.079 336.187 309.96 283.789 247.378 256.62C201.188 236.567 77.0733 206.466 5.70553 239.728" stroke="url(#paint0_linear_19_804)" stroke-opacity="0.14" stroke-width="2.81501"/>
<path opacity="0.105263" d="M524.052 314.034C514.022 327.022 479.484 350.206 421.566 339.028C349.169 325.057 315.14 275.145 249.242 253.201C200.603 237.005 73.114 217.137 6.61761 256.005" stroke="url(#paint1_linear_19_804)" stroke-opacity="0.14" stroke-width="2.81501"/>
<path opacity="0.157895" d="M532.789 288.317C524.564 302.048 493.337 327.906 434.231 321.487C360.349 313.465 319.783 266.587 251.29 250.108C200.736 237.946 71.2689 228.528 10.3724 272.576" stroke="url(#paint2_linear_19_804)" stroke-opacity="0.14" stroke-width="2.81501"/>
<path opacity="0.210526" d="M538.667 262.487C532.337 276.81 504.764 305.059 445.117 303.47C370.559 301.484 323.901 258.154 253.563 247.321C201.648 239.326 71.6212 240.46 16.9919 289.207" stroke="url(#paint3_linear_19_804)" stroke-opacity="0.14" stroke-width="2.81501"/>
<path opacity="0.263158" d="M541.687 236.779C537.321 251.538 513.705 281.869 454.171 285.127C379.753 289.199 327.514 249.89 256.102 244.822C203.395 241.082 74.2332 252.757 26.4696 305.668" stroke="url(#paint4_linear_19_804)" stroke-opacity="0.14" stroke-width="2.81501"/>
<path opacity="0.315789" d="M541.882 211.425C539.528 226.457 520.127 258.537 461.358 266.606C387.896 276.693 330.648 241.836 258.945 242.589C206.022 243.144 79.141 265.232 38.7663 321.727" stroke="url(#paint5_linear_19_804)" stroke-opacity="0.14" stroke-width="2.81501"/>
<path opacity="0.368421" d="M539.314 186.65C538.998 201.79 524.024 235.268 466.664 248.06C394.964 264.05 333.334 234.029 262.125 240.593C209.567 245.438 86.356 277.696 53.8126 337.157" stroke="url(#paint6_linear_19_804)" stroke-opacity="0.14" stroke-width="2.81501"/>
<path opacity="0.421053" d="M534.076 162.677C535.801 177.76 525.419 212.269 470.096 229.644C400.943 251.362 335.607 226.503 265.672 238.807C214.054 247.889 95.8638 289.965 71.5083 351.739" stroke="url(#paint7_linear_19_804)" stroke-opacity="0.14" stroke-width="2.81501"/>
<path opacity="0.473684" d="M526.292 139.716C530.039 154.576 524.363 189.738 471.683 211.505C405.834 238.713 337.508 219.291 269.613 237.2C219.502 250.419 107.626 301.851 91.7257 365.263" stroke="url(#paint8_linear_19_804)" stroke-opacity="0.14" stroke-width="2.81501"/>
<path opacity="0.526316" d="M516.11 117.968C521.838 132.443 520.929 167.874 471.47 193.794C409.647 226.195 339.078 212.421 273.968 235.739C225.912 252.95 121.577 313.175 114.306 377.529" stroke="url(#paint9_linear_19_804)" stroke-opacity="0.14" stroke-width="2.81501"/>
<path opacity="0.578947" d="M503.708 97.6232C511.355 111.554 515.223 146.864 469.527 176.654C412.407 213.892 340.369 205.917 278.757 234.389C233.282 255.404 137.632 323.762 139.069 388.353" stroke="url(#paint10_linear_19_804)" stroke-opacity="0.14" stroke-width="2.81501"/>
<path opacity="0.631579" d="M489.287 78.85C498.768 92.0847 507.372 126.887 465.939 160.221C414.148 201.888 341.431 199.8 283.991 233.113C241.597 257.701 155.678 333.443 165.808 397.564" stroke="url(#paint11_linear_19_804)" stroke-opacity="0.14" stroke-width="2.81501"/>
<path opacity="0.684211" d="M473.071 61.8087C484.283 74.2018 497.527 108.116 460.811 144.628C414.917 190.267 342.317 194.089 289.679 231.879C250.829 259.771 175.584 342.067 194.296 405.015" stroke="url(#paint12_linear_19_804)" stroke-opacity="0.14" stroke-width="2.81501"/>
<path opacity="0.736842" d="M455.3 46.6311C468.12 58.0469 485.861 90.7009 454.264 129.991C414.768 179.103 343.081 188.793 295.823 230.645C260.942 261.536 197.195 349.484 224.284 410.57" stroke="url(#paint13_linear_19_804)" stroke-opacity="0.14" stroke-width="2.81501"/>
<path opacity="0.789474" d="M436.237 33.4358C450.525 43.7492 472.567 74.7854 446.436 116.423C413.772 168.469 343.783 183.921 302.421 229.377C271.892 262.928 220.342 355.565 255.51 414.119" stroke="url(#paint14_linear_19_804)" stroke-opacity="0.14" stroke-width="2.81501"/>
<path opacity="0.842105" d="M416.154 22.3155C431.753 31.4135 457.855 60.4918 437.476 104.021C412.002 158.432 344.477 179.475 309.465 228.038C283.623 263.881 244.833 360.192 287.697 415.573" stroke="url(#paint15_linear_19_804)" stroke-opacity="0.14" stroke-width="2.81501"/>
<path opacity="0.894737" d="M395.337 13.3423C412.076 21.1253 441.952 47.927 427.548 92.8704C409.543 149.05 345.223 175.455 316.944 226.592C296.072 264.334 270.468 363.264 320.557 414.865" stroke="url(#paint16_linear_19_804)" stroke-opacity="0.14" stroke-width="2.81501"/>
<path opacity="0.947368" d="M374.078 6.56273C391.773 12.9453 425.096 37.1769 416.825 83.0424C406.486 140.374 346.076 171.852 324.84 225.003C309.166 264.231 297.029 364.696 353.794 411.951" stroke="url(#paint17_linear_19_804)" stroke-opacity="0.14" stroke-width="2.81501"/>
<path d="M352.678 2C371.136 6.91234 407.54 28.3083 405.492 74.5934C402.933 132.45 347.094 168.656 333.134 223.237C322.83 263.522 324.293 364.421 387.112 406.813" stroke="url(#paint18_linear_19_804)" stroke-opacity="0.14" stroke-width="2.81501"/>
</g>
<defs>
<linearGradient id="paint0_linear_19_804" x1="508.077" y1="349.946" x2="41.3791" y2="154.531" gradientUnits="userSpaceOnUse">
<stop stop-color="white"/>
<stop offset="1" stop-color="white" stop-opacity="0"/>
</linearGradient>
<linearGradient id="paint1_linear_19_804" x1="521.084" y1="324.87" x2="24.9775" y2="188.978" gradientUnits="userSpaceOnUse">
<stop stop-color="white"/>
<stop offset="1" stop-color="white" stop-opacity="0"/>
</linearGradient>
<linearGradient id="paint2_linear_19_804" x1="531.297" y1="299.335" x2="16.1979" y2="229.567" gradientUnits="userSpaceOnUse">
<stop stop-color="white"/>
<stop offset="1" stop-color="white" stop-opacity="0"/>
</linearGradient>
<linearGradient id="paint3_linear_19_804" x1="538.667" y1="273.566" x2="16.9919" y2="273.566" gradientUnits="userSpaceOnUse">
<stop stop-color="white"/>
<stop offset="1" stop-color="white" stop-opacity="0"/>
</linearGradient>
<linearGradient id="paint4_linear_19_804" x1="543.18" y1="247.798" x2="28.081" y2="317.566" gradientUnits="userSpaceOnUse">
<stop stop-color="white"/>
<stop offset="1" stop-color="white" stop-opacity="0"/>
</linearGradient>
<linearGradient id="paint5_linear_19_804" x1="544.851" y1="222.262" x2="48.7443" y2="358.154" gradientUnits="userSpaceOnUse">
<stop stop-color="white"/>
<stop offset="1" stop-color="white" stop-opacity="0"/>
</linearGradient>
<linearGradient id="paint6_linear_19_804" x1="543.726" y1="197.187" x2="77.0283" y2="392.602" gradientUnits="userSpaceOnUse">
<stop stop-color="white"/>
<stop offset="1" stop-color="white" stop-opacity="0"/>
</linearGradient>
<linearGradient id="paint7_linear_19_804" x1="539.883" y1="172.798" x2="110.268" y2="419.293" gradientUnits="userSpaceOnUse">
<stop stop-color="white"/>
<stop offset="1" stop-color="white" stop-opacity="0"/>
</linearGradient>
<linearGradient id="paint8_linear_19_804" x1="533.431" y1="149.31" x2="145.692" y2="437.796" gradientUnits="userSpaceOnUse">
<stop stop-color="white"/>
<stop offset="1" stop-color="white" stop-opacity="0"/>
</linearGradient>
<linearGradient id="paint9_linear_19_804" x1="524.502" y1="126.931" x2="180.892" y2="448.647" gradientUnits="userSpaceOnUse">
<stop stop-color="white"/>
<stop offset="1" stop-color="white" stop-opacity="0"/>
</linearGradient>
<linearGradient id="paint10_linear_19_804" x1="513.261" y1="105.856" x2="214.084" y2="453.002" gradientUnits="userSpaceOnUse">
<stop stop-color="white"/>
<stop offset="1" stop-color="white" stop-opacity="0"/>
</linearGradient>
<linearGradient id="paint11_linear_19_804" x1="499.897" y1="86.2632" x2="244.147" y2="452.3" gradientUnits="userSpaceOnUse">
<stop stop-color="white"/>
<stop offset="1" stop-color="white" stop-opacity="0"/>
</linearGradient>
<linearGradient id="paint12_linear_19_804" x1="484.621" y1="68.3206" x2="270.557" y2="448.01" gradientUnits="userSpaceOnUse">
<stop stop-color="white"/>
<stop offset="1" stop-color="white" stop-opacity="0"/>
</linearGradient>
<linearGradient id="paint13_linear_19_804" x1="467.664" y1="52.1705" x2="293.252" y2="441.469" gradientUnits="userSpaceOnUse">
<stop stop-color="white"/>
<stop offset="1" stop-color="white" stop-opacity="0"/>
</linearGradient>
<linearGradient id="paint14_linear_19_804" x1="449.28" y1="37.942" x2="312.51" y2="433.812" gradientUnits="userSpaceOnUse">
<stop stop-color="white"/>
<stop offset="1" stop-color="white" stop-opacity="0"/>
</linearGradient>
<linearGradient id="paint15_linear_19_804" x1="429.733" y1="25.739" x2="328.828" y2="425.943" gradientUnits="userSpaceOnUse">
<stop stop-color="white"/>
<stop offset="1" stop-color="white" stop-opacity="0"/>
</linearGradient>
<linearGradient id="paint16_linear_19_804" x1="409.302" y1="15.6457" x2="342.848" y2="418.542" gradientUnits="userSpaceOnUse">
<stop stop-color="white"/>
<stop offset="1" stop-color="white" stop-opacity="0"/>
</linearGradient>
<linearGradient id="paint17_linear_19_804" x1="388.277" y1="7.72077" x2="355.298" y2="412.074" gradientUnits="userSpaceOnUse">
<stop stop-color="white"/>
<stop offset="1" stop-color="white" stop-opacity="0"/>
</linearGradient>
<linearGradient id="paint18_linear_19_804" x1="366.955" y1="2" x2="366.955" y2="406.813" gradientUnits="userSpaceOnUse">
<stop stop-color="white"/>
<stop offset="1" stop-color="white" stop-opacity="0"/>
</linearGradient>
</defs>
</svg>
