      <svg  viewBox="0 0 650 675" fill="none" xmlns="http://www.w3.org/2000/svg">
<g opacity="0.3">
<path opacity="0.0344828" d="M151.758 587.617C148.301 584.536 146.107 579.849 145.218 573.55C144.327 567.238 144.762 559.403 146.493 550.201C149.956 531.8 158.541 508.236 171.542 481.089C197.533 426.817 241.029 358.515 295.882 289.073C350.735 219.631 406.503 162.267 452.304 125.652C475.213 107.338 495.568 94.2646 512.027 87.4471C520.257 84.038 527.445 82.2219 533.451 82.0582C539.445 81.8948 544.171 83.3765 547.628 86.4578C551.085 89.5391 553.279 94.2253 554.168 100.525C555.059 106.836 554.624 114.672 552.893 123.873C549.43 142.275 540.845 165.839 527.844 192.985C501.853 247.257 458.357 315.56 403.504 385.002C348.651 454.444 292.883 511.808 247.082 548.422C224.173 566.736 203.818 579.81 187.359 586.628C179.129 590.037 171.941 591.853 165.935 592.016C159.941 592.18 155.215 590.698 151.758 587.617Z" stroke="url(#paint0_linear_19_826)" stroke-opacity="0.3" stroke-width="2.8023"/>
<path opacity="0.0689655" d="M129.489 568.333C126.293 564.939 124.492 560.062 124.122 553.704C123.752 547.335 124.829 539.57 127.309 530.565C132.267 512.556 142.752 489.877 157.93 464.039C188.274 412.382 237.208 348.367 297.549 284.269C357.89 220.17 418.151 168.189 466.78 135.955C491.104 119.832 512.453 108.694 529.406 103.427C537.883 100.793 545.193 99.649 551.189 100.042C557.174 100.434 561.765 102.348 564.96 105.743C568.156 109.138 569.958 114.014 570.327 120.372C570.697 126.742 569.62 134.506 567.141 143.511C562.182 161.521 551.697 184.199 536.519 210.037C506.175 261.695 457.241 325.709 396.901 389.808C336.56 453.906 276.298 505.887 227.669 538.121C203.346 554.244 181.997 565.382 165.043 570.65C156.566 573.284 149.257 574.427 143.26 574.034C137.275 573.642 132.685 571.728 129.489 568.333Z" stroke="url(#paint1_linear_19_826)" stroke-opacity="0.3" stroke-width="2.8023"/>
<path opacity="0.103448" d="M108.876 547.289C105.967 543.605 104.573 538.576 104.726 532.208C104.88 525.829 106.59 518.194 109.798 509.453C116.215 491.974 128.52 470.354 145.76 446.02C180.225 397.37 234.224 338.131 299.593 279.864C364.962 221.596 429.258 175.393 480.345 147.785C505.898 133.976 528.078 124.857 545.398 121.18C554.058 119.341 561.432 118.879 567.374 119.825C573.304 120.77 577.724 123.102 580.634 126.786C583.543 130.469 584.938 135.498 584.784 141.866C584.63 148.246 582.92 155.88 579.712 164.621C573.295 182.101 560.99 203.72 543.75 228.055C509.285 276.704 455.286 335.943 389.917 394.211C324.548 452.478 260.252 498.681 209.165 526.289C183.612 540.098 161.432 549.217 144.113 552.894C135.452 554.733 128.078 555.195 122.136 554.249C116.206 553.304 111.786 550.972 108.876 547.289Z" stroke="url(#paint2_linear_19_826)" stroke-opacity="0.3" stroke-width="2.8023"/>
<path opacity="0.137931" d="M90.0599 524.646C84.8511 516.744 86.1951 503.974 94.0788 487.032C101.904 470.214 115.936 449.817 135.105 427.172C173.43 381.9 232.083 327.887 301.983 275.894C371.883 223.902 439.723 183.828 492.879 161.056C519.467 149.665 542.309 142.635 559.863 140.575C577.547 138.501 589.302 141.526 594.511 149.429C599.72 157.331 598.376 170.1 590.492 187.043C582.667 203.861 568.635 224.257 549.466 246.902C511.141 292.175 452.489 346.188 382.588 398.18C312.688 450.173 244.848 490.247 191.692 513.019C165.104 524.41 142.262 531.44 124.708 533.499C107.024 535.574 95.2687 532.548 90.0599 524.646Z" stroke="url(#paint3_linear_19_826)" stroke-opacity="0.3" stroke-width="2.8023"/>
<path opacity="0.172414" d="M73.1633 500.576C68.6176 492.213 71.0095 479.612 80.2504 463.469C89.4251 447.441 105.075 428.422 126.029 407.639C167.921 366.089 230.781 317.712 304.68 272.389C378.579 227.067 449.448 193.427 504.268 175.663C531.689 166.778 555.019 161.89 572.673 161.464C590.454 161.034 601.923 165.134 606.469 173.498C611.014 181.861 608.623 194.462 599.382 210.605C590.207 226.633 574.557 245.652 553.603 266.435C511.711 307.985 448.851 356.362 374.952 401.684C301.053 447.007 230.184 480.647 175.364 498.41C147.943 507.296 124.613 512.184 106.959 512.61C89.1777 513.04 77.709 508.94 73.1633 500.576Z" stroke="url(#paint4_linear_19_826)" stroke-opacity="0.3" stroke-width="2.8023"/>
<path opacity="0.206897" d="M58.2968 475.264C54.4508 466.502 57.8724 454.168 68.3995 438.946C78.8535 423.83 96.0036 406.333 118.583 387.57C163.723 350.057 230.311 307.685 307.646 269.377C384.982 231.069 458.34 204.119 514.407 191.499C542.452 185.187 566.093 182.477 583.713 183.687C601.457 184.905 612.551 190.049 616.397 198.81C620.243 207.572 616.822 219.906 606.294 235.128C595.84 250.244 578.69 267.741 556.111 286.504C510.971 324.017 444.383 366.389 367.048 404.697C289.712 443.005 216.354 469.955 160.287 482.575C132.242 488.887 108.601 491.597 90.9807 490.387C73.237 489.169 62.1428 484.025 58.2968 475.264Z" stroke="url(#paint5_linear_19_826)" stroke-opacity="0.3" stroke-width="2.8023"/>
<path opacity="0.241379" d="M45.5526 448.9C42.4375 439.808 46.8625 427.835 58.5955 413.649C70.2492 399.56 88.7685 383.718 112.8 367.117C160.845 333.927 230.656 297.882 310.839 266.88C391.022 235.878 466.311 215.823 523.199 208.442C551.654 204.75 575.426 204.24 592.879 207.076C610.451 209.931 621.086 216.082 624.201 225.174C627.316 234.265 622.891 246.239 611.158 260.424C599.504 274.514 580.985 290.356 556.953 306.957C508.908 340.147 439.098 376.192 358.915 407.194C278.732 438.196 203.443 458.251 146.555 465.632C118.1 469.324 94.3274 469.834 76.8745 466.998C59.3026 464.143 48.6678 457.992 45.5526 448.9Z" stroke="url(#paint6_linear_19_826)" stroke-opacity="0.3" stroke-width="2.8023"/>
<path opacity="0.275862" d="M35.012 421.687C32.653 412.335 38.0473 400.816 50.897 387.773C63.6617 374.816 83.4093 360.75 108.711 346.437C159.296 317.822 231.796 288.378 314.217 264.918C396.638 241.458 473.285 228.45 530.561 226.364C559.21 225.32 582.933 227.013 600.086 231.454C617.353 235.924 627.447 243.036 629.806 252.388C632.165 261.74 626.77 273.259 613.921 286.302C601.156 299.259 581.408 313.325 556.106 327.638C505.522 356.252 433.021 385.697 350.6 409.157C268.179 432.617 191.533 445.625 134.257 447.711C105.608 448.755 81.8849 447.062 64.732 442.621C47.4647 438.151 37.3709 431.039 35.012 421.687Z" stroke="url(#paint7_linear_19_826)" stroke-opacity="0.3" stroke-width="2.8023"/>
<path opacity="0.310345" d="M26.7323 393.83C25.1489 384.29 31.4707 373.313 45.3396 361.511C59.118 349.786 79.944 337.603 106.324 325.687C159.062 301.864 233.702 279.245 317.734 263.505C401.766 247.765 479.187 241.902 536.415 245.127C565.041 246.74 588.534 250.623 605.256 256.634C622.088 262.686 631.563 270.704 633.147 280.244C634.73 289.783 628.408 300.761 614.54 312.563C600.761 324.287 579.935 336.471 553.556 348.387C500.817 372.209 426.177 394.829 342.145 410.569C258.114 426.309 180.692 432.171 123.464 428.947C94.8385 427.334 71.3456 423.451 54.6231 417.439C37.7907 411.388 28.3158 403.369 26.7323 393.83Z" stroke="url(#paint8_linear_19_826)" stroke-opacity="0.3" stroke-width="2.8023"/>
<path opacity="0.344828" d="M20.7594 365.542C19.9644 355.89 27.1646 345.539 41.9477 335.067C56.6353 324.663 78.3812 314.453 105.638 305.025C160.13 286.177 236.341 270.553 321.344 262.653C406.347 254.753 483.955 256.081 540.7 264.592C569.084 268.849 592.168 274.892 608.333 282.429C624.604 290.014 633.386 298.88 634.181 308.533C634.976 318.185 627.776 328.536 612.993 339.008C598.306 349.412 576.56 359.622 549.303 369.05C494.811 387.898 418.6 403.522 333.597 411.422C248.594 419.321 170.986 417.994 114.241 409.483C85.8572 405.226 62.7728 399.183 46.6075 391.646C30.3372 384.06 21.5544 375.195 20.7594 365.542Z" stroke="url(#paint9_linear_19_826)" stroke-opacity="0.3" stroke-width="2.8023"/>
<path opacity="0.37931" d="M17.1182 337.037C17.1182 327.347 25.1408 317.702 40.7264 308.639C56.2116 299.634 78.7122 291.477 106.639 284.608C162.47 270.876 239.673 262.368 325 262.368C410.328 262.368 487.531 270.876 543.362 284.608C571.288 291.477 593.789 299.634 609.274 308.639C624.859 317.702 632.882 327.347 632.882 337.037C632.882 346.728 624.859 356.373 609.274 365.436C593.789 374.441 571.288 382.598 543.362 389.466C487.531 403.198 410.328 411.706 325 411.706C239.673 411.706 162.47 403.198 106.639 389.466C78.7122 382.598 56.2116 374.441 40.7264 365.436C25.1408 356.373 17.1182 346.728 17.1182 337.037Z" stroke="url(#paint10_linear_19_826)" stroke-opacity="0.3" stroke-width="2.8023"/>
<path opacity="0.413793" d="M15.8196 308.533C16.6146 298.88 25.3975 290.014 41.6678 282.429C57.8331 274.892 80.9175 268.849 109.301 264.592C166.047 256.081 243.654 254.753 328.657 262.653C413.66 270.553 489.871 286.176 544.363 305.025C571.62 314.453 593.366 324.663 608.053 335.067C622.836 345.539 630.037 355.889 629.242 365.542C628.447 375.195 619.664 384.06 603.393 391.646C587.228 399.183 564.144 405.226 535.76 409.483C479.015 417.994 401.407 419.321 316.404 411.422C231.402 403.522 155.19 387.898 100.698 369.05C73.4415 359.622 51.6956 349.412 37.0079 339.008C22.2248 328.536 15.0247 318.185 15.8196 308.533Z" stroke="url(#paint11_linear_19_826)" stroke-opacity="0.3" stroke-width="2.8023"/>
<path opacity="0.448276" d="M16.8534 280.244C18.4369 270.704 27.9118 262.686 44.7442 256.634C61.4667 250.623 84.9596 246.74 113.585 245.127C170.813 241.903 248.235 247.765 332.266 263.505C416.298 279.245 490.938 301.864 543.677 325.687C570.056 337.603 590.882 349.786 604.661 361.511C618.53 373.313 624.851 384.29 623.268 393.83C621.684 403.369 612.209 411.388 595.377 417.439C578.655 423.451 555.162 427.334 526.536 428.947C469.308 432.171 391.887 426.309 307.855 410.569C223.823 394.829 149.183 372.209 96.4447 348.387C70.0651 336.471 49.2391 324.287 35.4607 312.563C21.5917 300.761 15.27 289.783 16.8534 280.244Z" stroke="url(#paint12_linear_19_826)" stroke-opacity="0.3" stroke-width="2.8023"/>
<path opacity="0.482759" d="M20.1959 252.387C22.5548 243.035 32.6486 235.924 49.9159 231.454C67.0688 227.013 90.7915 225.32 119.441 226.363C176.717 228.449 253.363 241.458 335.784 264.918C418.205 288.378 490.706 317.822 541.29 346.437C566.592 360.75 586.34 374.816 599.105 387.772C611.954 400.815 617.349 412.335 614.99 421.687C612.631 431.039 602.537 438.15 585.27 442.62C568.117 447.061 544.394 448.754 515.745 447.711C458.469 445.625 381.822 432.616 299.401 409.156C216.98 385.696 144.48 356.252 93.8953 327.637C68.5933 313.324 48.8456 299.258 36.081 286.302C23.2312 273.259 17.8369 261.739 20.1959 252.387Z" stroke="url(#paint13_linear_19_826)" stroke-opacity="0.3" stroke-width="2.8023"/>
<path opacity="0.517241" d="M25.7989 225.174C28.914 216.082 39.5489 209.932 57.1207 207.076C74.5737 204.24 98.346 204.751 126.801 208.442C183.689 215.823 258.978 235.879 339.161 266.881C419.344 297.882 489.154 333.928 537.199 367.117C561.231 383.719 579.751 399.56 591.404 413.65C603.137 427.836 607.562 439.809 604.447 448.901C601.332 457.993 590.697 464.143 573.125 466.998C555.672 469.834 531.9 469.324 503.445 465.632C446.557 458.251 371.268 438.196 291.085 407.194C210.902 376.193 141.092 340.147 93.0466 306.958C69.0148 290.356 50.4955 274.515 38.8418 260.425C27.1087 246.239 22.6837 234.266 25.7989 225.174Z" stroke="url(#paint14_linear_19_826)" stroke-opacity="0.3" stroke-width="2.8023"/>
<path opacity="0.551724" d="M33.604 198.81C37.45 190.049 48.5442 184.905 66.2878 183.687C83.9083 182.477 107.55 185.187 135.594 191.499C191.661 204.119 265.019 231.069 342.355 269.377C419.69 307.685 486.278 350.057 531.419 387.57C553.997 406.333 571.147 423.83 581.601 438.946C592.129 454.168 595.55 466.502 591.704 475.264C587.858 484.025 576.764 489.169 559.02 490.387C541.4 491.597 517.759 488.887 489.714 482.575C433.647 469.955 360.289 443.005 282.953 404.697C205.618 366.389 139.03 324.017 93.8896 286.504C71.3108 267.741 54.1607 250.244 43.7067 235.128C33.1795 219.906 29.758 207.572 33.604 198.81Z" stroke="url(#paint15_linear_19_826)" stroke-opacity="0.3" stroke-width="2.8023"/>
<path opacity="0.586207" d="M43.5323 173.499C48.078 165.135 59.5467 161.035 77.3278 161.465C94.9819 161.891 118.312 166.779 145.733 175.664C200.553 193.428 271.422 227.068 345.321 272.39C419.22 317.713 482.079 366.089 523.971 407.64C544.925 428.423 560.576 447.442 569.75 463.47C578.991 479.613 581.383 492.213 576.837 500.577C572.292 508.941 560.823 513.041 543.042 512.611C525.388 512.184 502.057 507.296 474.637 498.411C419.817 480.648 348.948 447.008 275.049 401.685C201.15 356.363 138.29 307.986 96.3984 266.436C75.4443 245.653 59.7941 226.634 50.6193 210.606C41.3785 194.463 38.9866 181.862 43.5323 173.499Z" stroke="url(#paint16_linear_19_826)" stroke-opacity="0.3" stroke-width="2.8023"/>
<path opacity="0.62069" d="M55.4899 149.429C60.6987 141.527 72.4544 138.501 90.1383 140.576C107.692 142.635 130.534 149.665 157.122 161.056C210.278 183.828 278.118 223.902 348.018 275.894C417.918 327.887 476.571 381.9 514.896 427.172C534.065 449.817 548.096 470.214 555.922 487.032C563.806 503.974 565.15 516.744 559.941 524.646C554.732 532.548 542.977 535.574 525.293 533.499C507.739 531.44 484.897 524.41 458.309 513.019C405.153 490.247 337.313 450.173 267.413 398.181C197.512 346.188 138.86 292.175 100.535 246.903C81.3656 224.258 67.3344 203.861 59.5088 187.043C51.6251 170.101 50.281 157.331 55.4899 149.429Z" stroke="url(#paint17_linear_19_826)" stroke-opacity="0.3" stroke-width="2.8023"/>
<path opacity="0.655172" d="M69.3669 126.785C72.2764 123.102 76.6968 120.77 82.6267 119.825C88.5681 118.878 95.9429 119.341 104.603 121.18C121.922 124.857 144.102 133.976 169.655 147.785C220.742 175.393 285.038 221.596 350.407 279.863C415.776 338.13 469.775 397.369 504.241 446.019C521.48 470.354 533.785 491.973 540.202 509.453C543.411 518.193 545.12 525.828 545.274 532.208C545.428 538.576 544.033 543.605 541.124 547.288C538.214 550.972 533.794 553.304 527.864 554.248C521.923 555.195 514.548 554.733 505.888 552.894C488.568 549.216 466.389 540.098 440.835 526.288C389.749 498.681 325.453 452.477 260.084 394.21C194.715 335.943 140.716 276.704 106.25 228.054C89.0107 203.72 76.7054 182.1 70.2888 164.621C67.0804 155.88 65.3709 148.245 65.2168 141.866C65.063 135.498 66.4574 130.469 69.3669 126.785Z" stroke="url(#paint18_linear_19_826)" stroke-opacity="0.3" stroke-width="2.8023"/>
<path opacity="0.689655" d="M85.0407 105.742C88.2365 102.347 92.827 100.433 98.812 100.041C104.808 99.6483 112.118 100.792 120.595 103.426C137.549 108.693 158.897 119.832 183.221 135.955C231.85 168.188 292.112 220.17 352.452 284.268C412.793 348.366 461.727 412.381 492.071 464.038C507.249 489.877 517.734 512.555 522.693 530.564C525.172 539.569 526.249 547.334 525.879 553.704C525.51 560.061 523.708 564.938 520.512 568.333C517.316 571.727 512.726 573.641 506.741 574.033C500.745 574.426 493.435 573.283 484.958 570.649C468.004 565.382 446.656 554.243 422.332 538.12C373.703 505.887 313.441 453.905 253.101 389.807C192.76 325.708 143.826 261.694 113.482 210.037C98.3042 184.198 87.8187 161.52 82.8602 143.511C80.3808 134.505 79.3042 126.741 79.6741 120.371C80.0433 114.013 81.8449 109.137 85.0407 105.742Z" stroke="url(#paint19_linear_19_826)" stroke-opacity="0.3" stroke-width="2.8023"/>
<path opacity="0.724138" d="M102.372 86.4569C105.829 83.3756 110.555 81.8939 116.55 82.0573C122.555 82.221 129.744 84.037 137.974 87.4462C154.432 94.2637 174.787 107.337 197.696 125.652C243.497 162.266 299.265 219.63 354.118 289.072C408.971 358.514 452.468 426.817 478.459 481.088C491.459 508.235 500.045 531.799 503.507 550.201C505.238 559.402 505.674 567.238 504.783 573.549C503.893 579.848 501.699 584.535 498.242 587.616C494.785 590.697 490.06 592.179 484.065 592.016C478.059 591.852 470.871 590.036 462.641 586.627C446.183 579.809 425.828 566.736 402.918 548.421C357.118 511.807 301.349 454.443 246.497 385.001C191.644 315.559 148.147 247.256 122.156 192.985C109.156 165.838 100.57 142.274 97.1076 123.872C95.3762 114.671 94.9408 106.835 95.8319 100.524C96.7214 94.2244 98.9156 89.5381 102.372 86.4569Z" stroke="url(#paint20_linear_19_826)" stroke-opacity="0.3" stroke-width="2.8023"/>
<path opacity="0.758621" d="M121.211 69.0802C124.902 66.3349 129.727 65.2957 135.686 66.0135C141.655 66.7326 148.668 69.2074 156.587 73.366C172.425 81.6821 191.631 96.5916 212.951 116.958C255.575 157.674 306.426 219.985 355.373 294.242C404.32 368.499 442.048 440.57 463.488 497.044C474.212 525.291 480.832 549.562 482.772 568.216C483.742 577.544 483.533 585.391 482.127 591.595C480.724 597.789 478.155 602.25 474.464 604.995C470.773 607.74 465.948 608.78 459.99 608.062C454.02 607.343 447.008 604.868 439.088 600.709C423.25 592.393 404.044 577.484 382.724 557.118C340.1 516.401 289.249 454.09 240.302 379.833C191.355 305.576 153.627 233.505 132.187 177.032C121.463 148.784 114.843 124.513 112.903 105.859C111.933 96.531 112.142 88.6846 113.548 82.4799C114.951 76.2862 117.52 71.8255 121.211 69.0802Z" stroke="url(#paint21_linear_19_826)" stroke-opacity="0.3" stroke-width="2.8023"/>
<path opacity="0.793103" d="M141.396 53.7412C145.293 51.3515 150.18 50.7619 156.058 52.0287C161.945 53.2978 168.729 56.4126 176.278 61.2892C191.375 71.0408 209.286 87.6728 228.854 109.936C267.976 154.445 313.522 221.228 356.191 299.735C398.86 378.242 430.532 453.533 447.257 511.778C455.623 540.912 460.227 565.705 460.629 584.469C460.829 593.853 459.977 601.651 458.068 607.702C456.162 613.742 453.237 617.944 449.341 620.333C445.445 622.723 440.557 623.313 434.68 622.046C428.792 620.777 422.008 617.662 414.459 612.785C399.362 603.034 381.452 586.402 361.883 564.139C322.761 519.63 277.215 452.847 234.547 374.34C191.878 295.833 160.206 220.541 143.48 162.296C135.114 133.162 130.511 108.369 130.109 89.6052C129.908 80.2217 130.76 72.4239 132.669 66.3729C134.575 60.3324 137.5 56.1308 141.396 53.7412Z" stroke="url(#paint22_linear_19_826)" stroke-opacity="0.3" stroke-width="2.8023"/>
<path opacity="0.827586" d="M162.754 40.5585C166.826 38.5414 171.739 38.4052 177.491 40.2115C183.252 42.0208 189.755 45.752 196.876 51.3095C211.116 62.4227 227.595 80.6506 245.263 104.641C280.585 152.605 320.479 223.351 356.545 305.511C392.61 387.67 417.985 465.609 429.868 525.182C435.812 554.981 438.364 580.107 437.225 598.838C436.655 608.205 435.166 615.895 432.768 621.746C430.373 627.588 427.117 631.499 423.044 633.516C418.972 635.533 414.059 635.669 408.307 633.863C402.546 632.054 396.043 628.322 388.922 622.765C374.682 611.652 358.203 593.424 340.535 569.433C305.213 521.47 265.319 450.724 229.253 368.564C193.188 286.404 167.813 208.466 155.93 148.892C149.986 119.094 147.434 93.9676 148.573 75.2363C149.143 65.869 150.632 58.1792 153.03 52.3281C155.425 46.4867 158.681 42.5756 162.754 40.5585Z" stroke="url(#paint23_linear_19_826)" stroke-opacity="0.3" stroke-width="2.8023"/>
<path opacity="0.862069" d="M185.103 29.6332C189.32 28.0027 194.224 28.3206 199.805 30.6526C205.396 32.9884 211.568 37.3077 218.207 43.5039C231.482 55.894 246.404 75.5793 262.036 101.115C293.289 152.167 327.227 226.339 356.415 311.526C385.603 396.713 404.487 476.705 411.437 537.153C414.914 567.389 415.395 592.657 412.723 611.213C411.387 620.493 409.272 628.016 406.403 633.623C403.538 639.22 399.974 642.812 395.757 644.442C391.54 646.073 386.637 645.755 381.055 643.423C375.464 641.087 369.292 636.768 362.653 630.572C349.378 618.182 334.457 598.496 318.824 572.961C287.571 521.909 253.633 447.737 224.445 362.55C195.257 277.363 176.374 197.371 169.423 136.923C165.947 106.687 165.465 81.4185 168.138 62.8626C169.474 53.583 171.588 46.0599 174.458 40.453C177.322 34.8552 180.886 31.2637 185.103 29.6332Z" stroke="url(#paint24_linear_19_826)" stroke-opacity="0.3" stroke-width="2.8023"/>
<path opacity="0.896552" d="M208.255 21.047C212.585 19.8143 217.441 20.5835 222.811 23.4236C228.189 26.2681 233.983 31.1426 240.089 37.9304C252.298 51.5031 265.547 72.4957 279.026 99.3822C305.972 153.134 333.695 230.167 355.783 317.733C377.871 405.298 390.12 486.735 392.084 547.598C393.067 578.041 391.473 603.259 387.289 621.498C385.196 630.619 382.472 637.918 379.154 643.238C375.84 648.55 371.997 651.795 367.666 653.028C363.335 654.26 358.479 653.491 353.11 650.651C347.732 647.806 341.937 642.932 335.832 636.144C323.623 622.571 310.373 601.579 296.895 574.692C269.949 520.94 242.225 443.908 220.138 356.342C198.05 268.776 185.801 187.339 183.837 126.476C182.854 96.0333 184.448 70.8157 188.632 52.5768C190.725 43.4555 193.449 36.1564 196.767 30.8365C200.081 25.525 203.924 22.2796 208.255 21.047Z" stroke="url(#paint25_linear_19_826)" stroke-opacity="0.3" stroke-width="2.8023"/>
<path opacity="0.931035" d="M232.013 14.867C236.426 14.0406 241.198 15.2552 246.315 18.5818C251.439 21.9134 256.811 27.306 262.337 34.6336C273.386 49.2856 284.864 71.4257 296.085 99.458C318.519 155.501 339.816 234.808 354.636 324.086C369.455 413.364 374.976 495.625 371.939 556.439C370.42 586.858 366.763 611.833 361.098 629.616C358.265 638.509 354.952 645.528 351.21 650.521C347.473 655.505 343.38 658.381 338.967 659.207C334.555 660.034 329.782 658.819 324.666 655.493C319.542 652.161 314.169 646.768 308.644 639.441C297.595 624.789 286.117 602.649 274.896 574.616C252.462 518.573 231.164 439.266 216.345 349.989C201.526 260.711 196.005 178.449 199.042 117.635C200.561 87.2163 204.217 62.2415 209.883 44.4587C212.716 35.5654 216.028 28.5461 219.771 23.5536C223.507 18.5689 227.601 15.6934 232.013 14.867Z" stroke="url(#paint26_linear_19_826)" stroke-opacity="0.3" stroke-width="2.8023"/>
<path opacity="0.965517" d="M256.182 11.1399C260.643 10.7253 265.297 12.3764 270.121 16.164C274.952 19.9574 279.862 25.827 284.766 33.6386C294.571 49.2582 304.188 72.3771 313.067 101.342C330.817 159.249 345.527 240.226 352.965 330.537C360.403 420.847 359.154 503.308 351.139 563.609C347.13 593.772 341.438 618.314 334.335 635.505C330.783 644.102 326.907 650.788 322.769 655.415C318.638 660.035 314.324 662.519 309.863 662.934C305.402 663.349 300.748 661.698 295.924 657.91C291.093 654.117 286.183 648.247 281.279 640.435C271.474 624.816 261.857 601.697 252.978 572.732C235.227 514.825 220.517 433.848 213.079 343.537C205.642 253.227 206.891 170.766 214.906 110.465C218.915 80.3021 224.607 55.7605 231.71 38.5694C235.262 29.972 239.138 23.2859 243.275 18.6589C247.407 14.039 251.72 11.5545 256.182 11.1399Z" stroke="url(#paint27_linear_19_826)" stroke-opacity="0.3" stroke-width="2.8023"/>
<path d="M280.552 9.89435C285.03 9.89434 289.53 11.9697 294.025 16.1896C298.527 20.4158 302.937 26.7178 307.181 34.9537C315.667 51.4217 323.351 75.3432 329.82 105.02C342.751 164.35 350.762 246.381 350.762 337.037C350.762 427.692 342.751 509.724 329.82 569.054C323.351 598.731 315.667 622.652 307.181 639.12C302.937 647.356 298.527 653.658 294.025 657.884C289.53 662.104 285.03 664.18 280.552 664.18C276.075 664.18 271.574 662.104 267.079 657.884C262.578 653.658 258.168 647.356 253.924 639.12C245.437 622.652 237.754 598.731 231.285 569.054C218.353 509.724 210.343 427.692 210.343 337.037C210.343 246.382 218.353 164.35 231.285 105.02C237.754 75.3432 245.437 51.4218 253.924 34.9537C258.168 26.7178 262.578 20.4158 267.079 16.1896C271.574 11.9697 276.075 9.89435 280.552 9.89435Z" stroke="url(#paint28_linear_19_826)" stroke-opacity="0.3" stroke-width="2.8023"/>
</g>
<defs>
<linearGradient id="paint0_linear_19_826" x1="404.55" y1="385.934" x2="289.422" y2="294.994" gradientUnits="userSpaceOnUse">
<stop stop-color="white"/>
<stop offset="1" stop-color="white" stop-opacity="0"/>
</linearGradient>
<linearGradient id="paint1_linear_19_826" x1="397.861" y1="390.828" x2="290.478" y2="289.74" gradientUnits="userSpaceOnUse">
<stop stop-color="white"/>
<stop offset="1" stop-color="white" stop-opacity="0"/>
</linearGradient>
<linearGradient id="paint2_linear_19_826" x1="390.785" y1="395.31" x2="292.136" y2="284.637" gradientUnits="userSpaceOnUse">
<stop stop-color="white"/>
<stop offset="1" stop-color="white" stop-opacity="0"/>
</linearGradient>
<linearGradient id="paint3_linear_19_826" x1="383.36" y1="399.35" x2="294.419" y2="279.777" gradientUnits="userSpaceOnUse">
<stop stop-color="white"/>
<stop offset="1" stop-color="white" stop-opacity="0"/>
</linearGradient>
<linearGradient id="paint4_linear_19_826" x1="375.621" y1="402.915" x2="297.328" y2="275.257" gradientUnits="userSpaceOnUse">
<stop stop-color="white"/>
<stop offset="1" stop-color="white" stop-opacity="0"/>
</linearGradient>
<linearGradient id="paint5_linear_19_826" x1="367.611" y1="405.98" x2="300.841" y2="271.186" gradientUnits="userSpaceOnUse">
<stop stop-color="white"/>
<stop offset="1" stop-color="white" stop-opacity="0"/>
</linearGradient>
<linearGradient id="paint6_linear_19_826" x1="359.369" y1="408.519" x2="304.912" y2="267.671" gradientUnits="userSpaceOnUse">
<stop stop-color="white"/>
<stop offset="1" stop-color="white" stop-opacity="0"/>
</linearGradient>
<linearGradient id="paint7_linear_19_826" x1="350.943" y1="410.515" x2="309.471" y2="264.813" gradientUnits="userSpaceOnUse">
<stop stop-color="white"/>
<stop offset="1" stop-color="white" stop-opacity="0"/>
</linearGradient>
<linearGradient id="paint8_linear_19_826" x1="342.375" y1="411.951" x2="314.419" y2="262.701" gradientUnits="userSpaceOnUse">
<stop stop-color="white"/>
<stop offset="1" stop-color="white" stop-opacity="0"/>
</linearGradient>
<linearGradient id="paint9_linear_19_826" x1="333.712" y1="412.818" x2="319.64" y2="261.405" gradientUnits="userSpaceOnUse">
<stop stop-color="white"/>
<stop offset="1" stop-color="white" stop-opacity="0"/>
</linearGradient>
<linearGradient id="paint10_linear_19_826" x1="325" y1="413.107" x2="325" y2="260.967" gradientUnits="userSpaceOnUse">
<stop stop-color="white"/>
<stop offset="1" stop-color="white" stop-opacity="0"/>
</linearGradient>
<linearGradient id="paint11_linear_19_826" x1="316.289" y1="412.818" x2="330.361" y2="261.405" gradientUnits="userSpaceOnUse">
<stop stop-color="white"/>
<stop offset="1" stop-color="white" stop-opacity="0"/>
</linearGradient>
<linearGradient id="paint12_linear_19_826" x1="307.626" y1="411.951" x2="335.581" y2="262.701" gradientUnits="userSpaceOnUse">
<stop stop-color="white"/>
<stop offset="1" stop-color="white" stop-opacity="0"/>
</linearGradient>
<linearGradient id="paint13_linear_19_826" x1="299.059" y1="410.515" x2="340.531" y2="264.813" gradientUnits="userSpaceOnUse">
<stop stop-color="white"/>
<stop offset="1" stop-color="white" stop-opacity="0"/>
</linearGradient>
<linearGradient id="paint14_linear_19_826" x1="290.631" y1="408.52" x2="345.088" y2="267.671" gradientUnits="userSpaceOnUse">
<stop stop-color="white"/>
<stop offset="1" stop-color="white" stop-opacity="0"/>
</linearGradient>
<linearGradient id="paint15_linear_19_826" x1="282.39" y1="405.98" x2="349.16" y2="271.186" gradientUnits="userSpaceOnUse">
<stop stop-color="white"/>
<stop offset="1" stop-color="white" stop-opacity="0"/>
</linearGradient>
<linearGradient id="paint16_linear_19_826" x1="274.38" y1="402.916" x2="352.673" y2="275.258" gradientUnits="userSpaceOnUse">
<stop stop-color="white"/>
<stop offset="1" stop-color="white" stop-opacity="0"/>
</linearGradient>
<linearGradient id="paint17_linear_19_826" x1="266.641" y1="399.35" x2="355.582" y2="279.777" gradientUnits="userSpaceOnUse">
<stop stop-color="white"/>
<stop offset="1" stop-color="white" stop-opacity="0"/>
</linearGradient>
<linearGradient id="paint18_linear_19_826" x1="259.215" y1="395.31" x2="357.864" y2="284.637" gradientUnits="userSpaceOnUse">
<stop stop-color="white"/>
<stop offset="1" stop-color="white" stop-opacity="0"/>
</linearGradient>
<linearGradient id="paint19_linear_19_826" x1="252.14" y1="390.827" x2="359.523" y2="289.739" gradientUnits="userSpaceOnUse">
<stop stop-color="white"/>
<stop offset="1" stop-color="white" stop-opacity="0"/>
</linearGradient>
<linearGradient id="paint20_linear_19_826" x1="245.451" y1="385.933" x2="360.578" y2="294.993" gradientUnits="userSpaceOnUse">
<stop stop-color="white"/>
<stop offset="1" stop-color="white" stop-opacity="0"/>
</linearGradient>
<linearGradient id="paint21_linear_19_826" x1="239.178" y1="380.67" x2="361.061" y2="300.329" gradientUnits="userSpaceOnUse">
<stop stop-color="white"/>
<stop offset="1" stop-color="white" stop-opacity="0"/>
</linearGradient>
<linearGradient id="paint22_linear_19_826" x1="233.352" y1="375.072" x2="361.018" y2="305.686" gradientUnits="userSpaceOnUse">
<stop stop-color="white"/>
<stop offset="1" stop-color="white" stop-opacity="0"/>
</linearGradient>
<linearGradient id="paint23_linear_19_826" x1="227.998" y1="369.186" x2="360.493" y2="311.024" gradientUnits="userSpaceOnUse">
<stop stop-color="white"/>
<stop offset="1" stop-color="white" stop-opacity="0"/>
</linearGradient>
<linearGradient id="paint24_linear_19_826" x1="223.138" y1="363.055" x2="359.538" y2="316.32" gradientUnits="userSpaceOnUse">
<stop stop-color="white"/>
<stop offset="1" stop-color="white" stop-opacity="0"/>
</linearGradient>
<linearGradient id="paint25_linear_19_826" x1="218.79" y1="356.726" x2="358.194" y2="321.562" gradientUnits="userSpaceOnUse">
<stop stop-color="white"/>
<stop offset="1" stop-color="white" stop-opacity="0"/>
</linearGradient>
<linearGradient id="paint26_linear_19_826" x1="214.968" y1="350.247" x2="356.499" y2="326.754" gradientUnits="userSpaceOnUse">
<stop stop-color="white"/>
<stop offset="1" stop-color="white" stop-opacity="0"/>
</linearGradient>
<linearGradient id="paint27_linear_19_826" x1="211.684" y1="343.667" x2="354.484" y2="331.906" gradientUnits="userSpaceOnUse">
<stop stop-color="white"/>
<stop offset="1" stop-color="white" stop-opacity="0"/>
</linearGradient>
<linearGradient id="paint28_linear_19_826" x1="208.942" y1="337.037" x2="352.163" y2="337.037" gradientUnits="userSpaceOnUse">
<stop stop-color="white"/>
<stop offset="1" stop-color="white" stop-opacity="0"/>
</linearGradient>
</defs>
</svg>