<svg  viewBox="0 0 641 262" fill="none" xmlns="http://www.w3.org/2000/svg">
<g filter="url(#filter0_d_2007_277)">
<line x1="139.655" y1="253.361" x2="4.65457" y2="124.362" stroke="url(#paint0_linear_2007_277)"/>
<line x1="511.649" y1="249.644" x2="635.649" y2="127.644" stroke="url(#paint1_linear_2007_277)"/>
<line x1="248.519" y1="162.137" x2="207.519" y2="18.1369" stroke="url(#paint2_linear_2007_277)"/>
<line x1="425.519" y1="170.864" x2="466.519" y2="25.864" stroke="url(#paint3_linear_2007_277)"/>
<line x1="425.52" y1="170.861" x2="467.52" y2="25.8609" stroke="url(#paint4_linear_2007_277)"/>
<line x1="248.519" y1="162.137" x2="207.519" y2="18.1369" stroke="url(#paint5_linear_2007_277)"/>
<line x1="425.52" y1="170.861" x2="467.52" y2="25.8609" stroke="url(#paint6_linear_2007_277)"/>
<line x1="247.518" y1="161.132" x2="208.518" y2="18.1315" stroke="url(#paint7_linear_2007_277)"/>
<path fill-rule="evenodd" clip-rule="evenodd" d="M330 0.999955C222.788 -0.972851 85.5075 50.7718 5.5 127.161L141.188 253.164C180.29 188.751 249.119 146 327.5 146C404.558 146 472.384 187.321 511.808 249.923L636.79 127.161C559.248 47.8727 437.211 2.97276 330 0.999955Z" fill="white" fill-opacity="0.08"/>
</g>
<defs>
<filter id="filter0_d_2007_277" x="0.30957" y="0.945435" width="640.48" height="260.778" filterUnits="userSpaceOnUse" color-interpolation-filters="sRGB">
<feFlood flood-opacity="0" result="BackgroundImageFix"/>
<feColorMatrix in="SourceAlpha" type="matrix" values="0 0 0 0 0 0 0 0 0 0 0 0 0 0 0 0 0 0 127 0" result="hardAlpha"/>
<feOffset dy="4"/>
<feGaussianBlur stdDeviation="2"/>
<feComposite in2="hardAlpha" operator="out"/>
<feColorMatrix type="matrix" values="0 0 0 0 0 0 0 0 0 0 0 0 0 0 0 0 0 0 0.25 0"/>
<feBlend mode="normal" in2="BackgroundImageFix" result="effect1_dropShadow_2007_277"/>
<feBlend mode="normal" in="SourceGraphic" in2="effect1_dropShadow_2007_277" result="shape"/>
</filter>
<linearGradient id="paint0_linear_2007_277" x1="5.34543" y1="123.639" x2="140.345" y2="252.639" gradientUnits="userSpaceOnUse">
<stop/>
<stop offset="1" stop-color="white"/>
</linearGradient>
<linearGradient id="paint1_linear_2007_277" x1="512.351" y1="250.356" x2="636.351" y2="128.356" gradientUnits="userSpaceOnUse">
<stop stop-color="white"/>
<stop offset="1"/>
</linearGradient>
<linearGradient id="paint2_linear_2007_277" x1="208.481" y1="17.8631" x2="249.481" y2="161.863" gradientUnits="userSpaceOnUse">
<stop/>
<stop offset="1" stop-color="white"/>
</linearGradient>
<linearGradient id="paint3_linear_2007_277" x1="467.481" y1="26.136" x2="426.481" y2="171.136" gradientUnits="userSpaceOnUse">
<stop/>
<stop offset="1" stop-color="white"/>
</linearGradient>
<linearGradient id="paint4_linear_2007_277" x1="468.48" y1="26.1391" x2="426.48" y2="171.139" gradientUnits="userSpaceOnUse">
<stop/>
<stop offset="1" stop-color="white"/>
</linearGradient>
<linearGradient id="paint5_linear_2007_277" x1="208.481" y1="17.8631" x2="249.481" y2="161.863" gradientUnits="userSpaceOnUse">
<stop/>
<stop offset="1" stop-color="white"/>
</linearGradient>
<linearGradient id="paint6_linear_2007_277" x1="468.48" y1="26.1391" x2="426.48" y2="171.139" gradientUnits="userSpaceOnUse">
<stop/>
<stop offset="1" stop-color="white"/>
</linearGradient>
<linearGradient id="paint7_linear_2007_277" x1="209.482" y1="17.8684" x2="248.482" y2="160.868" gradientUnits="userSpaceOnUse">
<stop/>
<stop offset="1" stop-color="white"/>
</linearGradient>
</defs>
</svg>
